# xmcd
#
# Track frame offsets:
#	150
#	8177
#	21305
#	35932
#	54197
#	74712
#	97702
#
# Disc length: 1445 seconds
#
# Revision: 0
# Processed by: cddbd v1.5.2PL0 Copyright (c) Steve Scherf et al.
# Submitted via: EasyCDDAExtractor 10.0.6.1
#
DISCID=5705a307
DTITLE=Lunar Caustic - Pull The Trigger
DYEAR=2004
DGENRE=Metal
TTITLE0=Intro
TTITLE1=If She Choose You
TTITLE2=Pull The Trigger
TTITLE3=Pagan Winter
TTITLE4=You're Out There
TTITLE5=Manfred
TTITLE6=Evil Blackness
EXTD=
EXTT0=
EXTT1=
EXTT2=
EXTT3=
EXTT4=
EXTT5=
EXTT6=
PLAYORDER=
